<svg width="119" height="59" viewBox="0 0 119 59" fill="none" xmlns="http://www.w3.org/2000/svg">
<path d="M22.792 9.72C20.36 9.72 18.1627 10.1467 16.2 11C14.2373 11.8107 12.5733 13.0267 11.208 14.648C9.84267 16.2267 8.79733 18.168 8.072 20.472C7.34667 22.7333 6.984 25.2933 6.984 28.152C6.984 31.9067 7.56 35.1707 8.712 37.944C9.90667 40.7173 11.656 42.8507 13.96 44.344C16.3067 45.8373 19.2293 46.584 22.728 46.584C24.7333 46.584 26.632 46.4133 28.424 46.072C30.216 45.7307 31.9653 45.304 33.672 44.792V49.784C31.9653 50.424 30.1947 50.8933 28.36 51.192C26.568 51.4907 24.4133 51.64 21.896 51.64C17.2453 51.64 13.3627 50.68 10.248 48.76C7.13333 46.84 4.78667 44.1093 3.208 40.568C1.672 37.0267 0.904 32.8667 0.904 28.088C0.904 24.632 1.37333 21.4747 2.312 18.616C3.29333 15.7573 4.70133 13.2827 6.536 11.192C8.41333 9.10133 10.7173 7.50133 13.448 6.392C16.1787 5.24 19.3147 4.664 22.856 4.664C25.2027 4.664 27.464 4.89866 29.64 5.368C31.816 5.83733 33.7573 6.49866 35.464 7.352L33.16 12.216C31.752 11.576 30.1733 11 28.424 10.488C26.7173 9.976 24.84 9.72 22.792 9.72ZM55.8695 16.12C60.0508 16.12 63.1442 17.0373 65.1495 18.872C67.1548 20.7067 68.1575 23.6293 68.1575 27.64V51H64.0615L62.9735 46.136H62.7175C61.7362 47.3733 60.7122 48.4187 59.6455 49.272C58.6215 50.0827 57.4268 50.68 56.0615 51.064C54.7388 51.448 53.1175 51.64 51.1975 51.64C49.1495 51.64 47.2935 51.2773 45.6295 50.552C44.0082 49.8267 42.7282 48.7173 41.7895 47.224C40.8508 45.688 40.3815 43.768 40.3815 41.464C40.3815 38.0507 41.7255 35.4267 44.4135 33.592C47.1015 31.7147 51.2402 30.6907 56.8295 30.52L62.6535 30.328V28.28C62.6535 25.4213 62.0348 23.4373 60.7975 22.328C59.5602 21.2187 57.8108 20.664 55.5495 20.664C53.7575 20.664 52.0508 20.9413 50.4295 21.496C48.8082 22.008 47.2935 22.6053 45.8855 23.288L44.1575 19.064C45.6508 18.2533 47.4215 17.5707 49.4695 17.016C51.5175 16.4187 53.6508 16.12 55.8695 16.12ZM57.5335 34.424C53.2668 34.5947 50.3015 35.2773 48.6375 36.472C47.0162 37.6667 46.2055 39.352 46.2055 41.528C46.2055 43.448 46.7815 44.856 47.9335 45.752C49.1282 46.648 50.6428 47.096 52.4775 47.096C55.3788 47.096 57.7895 46.3067 59.7095 44.728C61.6295 43.1067 62.5895 40.632 62.5895 37.304V34.232L57.5335 34.424ZM109.138 51.64C106.108 51.64 103.399 51.0213 101.01 49.784C98.6628 48.5467 96.8068 46.6267 95.4415 44.024C94.1188 41.4213 93.4575 38.0933 93.4575 34.04C93.4575 29.816 94.1615 26.3813 95.5695 23.736C96.9775 21.0907 98.8762 19.1493 101.266 17.912C103.698 16.6747 106.45 16.056 109.522 16.056C111.271 16.056 112.956 16.248 114.578 16.632C116.199 16.9733 117.522 17.4 118.546 17.912L116.818 22.584C115.794 22.2 114.599 21.8373 113.234 21.496C111.868 21.1547 110.588 20.984 109.394 20.984C107.09 20.984 105.191 21.4747 103.698 22.456C102.204 23.4373 101.095 24.888 100.37 26.808C99.6442 28.728 99.2815 31.1173 99.2815 33.976C99.2815 36.7067 99.6442 39.032 100.37 40.952C101.095 42.872 102.183 44.3227 103.634 45.304C105.084 46.2853 106.898 46.776 109.074 46.776C110.951 46.776 112.594 46.584 114.002 46.2C115.452 45.816 116.775 45.3467 117.97 44.792V49.784C116.818 50.3813 115.538 50.8293 114.13 51.128C112.764 51.4693 111.1 51.64 109.138 51.64Z" fill="white"/>
<path d="M97.5 0.681346L91.7482 0.68134L71 58.4093L77.5 58.4093L97.5 0.681346Z" fill="#73FF67"/>
</svg>
